<svg id="Layer_1" data-name="Layer 1" xmlns="http://www.w3.org/2000/svg" viewBox="0 0 76.16 79.15"><defs><style>.cls-1{fill:none;stroke:#000;stroke-miterlimit:10;stroke-width:0.25px;}</style></defs><path class="cls-1" d="M59.31,52.83a.45.45,0,0,0,0-.11v-.24c.13-.55.3-1.09.41-1.65.3-1.49.57-3,.86-4.49l.12-.69.11-.35v-.23l0-.31a10.59,10.59,0,0,0,.55-2.48c.62-3.05,1.25-6.1,1.86-9.16.83-4.12,1.64-8.25,2.47-12.38A1.93,1.93,0,0,1,67.84,19l1.32,0c.54,0,1.08,0,1.62,0a1.28,1.28,0,0,0,1.4-1.17q1.47-7.28,2.91-14.55a1.35,1.35,0,0,0-1.44-1.78H66.82c-1.09,0-1.5.33-1.71,1.39-.35,1.77-.72,3.54-1,5.32a2.38,2.38,0,0,1-1.91,2,11.82,11.82,0,0,1-2.14.12H24.12a5.34,5.34,0,0,0-5,4.14c-.22,1-.41,2-.61,3.06L14.44,38.08l-2.7,13.6-1.11,5.48Q8.93,65.59,7.24,74a5.32,5.32,0,0,0,4.89,6.36c2,.07,4,0,6,0H42.87c1.94,0,3.89,0,5.84,0a7.47,7.47,0,0,0,2.85-.48,5.13,5.13,0,0,0,3.13-4.05,2,2,0,0,1,2.2-1.16l1.74,0c.38,0,.77,0,1.15,0a1.25,1.25,0,0,0,1.22-1c.14-.51,1.86-9.22,2-9.7.43-2,.83-4.07,1.24-6.11a1.57,1.57,0,0,1,.36-.76,5.77,5.77,0,0,1,.67-.52A14.6,14.6,0,0,1,70,56.3c1.36,0,2.73,0,4.1,0,1.13,0,1.56-.36,1.78-1.47q1.41-7.09,2.83-14.21c.22-1.12-.29-1.85-1.42-1.86-2.36,0-4.71,0-7.06,0A1.35,1.35,0,0,0,68.73,40c-.25,1.21-.46,2.42-.73,3.63-.89,4-1.43,8.18-2.59,12.18a4.16,4.16,0,0,1-2.16,1.42c-1.27,0-2.57.18-3.8-.36a.24.24,0,0,0-.13-.22L59,56.07a2.65,2.65,0,0,1-.11-1.15,3.86,3.86,0,0,0,.23-1.16C59.33,53.49,59.1,53.11,59.31,52.83ZM10.78,20.07H7.48c-1.14,0-1.55.35-1.78,1.46L2.88,35.74A1.39,1.39,0,0,0,4.4,37.62q3.39,0,6.78,0c1.05,0,1.48-.39,1.69-1.43Q14.28,29.08,15.7,22c.24-1.21-.31-1.9-1.56-1.9S11.9,20.07,10.78,20.07Z" transform="translate(-2.7 -1.4)"/></svg>